<svg width="22" height="22" viewBox="0 0 22 22" fill="none" xmlns="http://www.w3.org/2000/svg">
<path d="M19.9995 10.7505C19.9995 5.64187 15.859 1.50026 10.7505 1.5C5.6417 1.5 1.5 5.6417 1.5 10.7505C1.50026 15.859 5.64187 19.9995 10.7505 19.9995C15.8589 19.9992 19.9992 15.8589 19.9995 10.7505ZM21.4995 10.7505C21.4992 16.6873 16.6873 21.4992 10.7505 21.4995C4.81344 21.4995 0.000264378 16.6875 0 10.7505C0 4.81328 4.81328 0 10.7505 0C16.6875 0.000264383 21.4995 4.81344 21.4995 10.7505Z" fill="black"/>
<path d="M14.7202 5.71948C15.0131 5.42659 15.4879 5.42659 15.7808 5.71948C16.0737 6.01238 16.0737 6.48714 15.7808 6.78003L11.811 10.7498L15.7793 14.718C16.0722 15.0109 16.0722 15.4857 15.7793 15.7786C15.4864 16.0715 15.0116 16.0715 14.7188 15.7786L10.7505 11.8103L6.78076 15.78C6.48787 16.0729 6.01311 16.0729 5.72021 15.78C5.42732 15.4871 5.42732 15.0124 5.72021 14.7195L9.68994 10.7498L5.72021 6.78003C5.42732 6.48714 5.42732 6.01238 5.72021 5.71948C6.01311 5.42659 6.48787 5.42659 6.78076 5.71948L10.7505 9.68921L14.7202 5.71948Z" fill="black"/>
</svg>
