<?xml version="1.0" standalone="no"?>
<!DOCTYPE svg PUBLIC "-//W3C//DTD SVG 1.1//EN" "http://www.w3.org/Graphics/SVG/1.1/DTD/svg11.dtd" >
<svg xmlns="http://www.w3.org/2000/svg">
<metadata>Generated by IcoMoon</metadata>
<defs>
<font id="icomoon" horiz-adv-x="1024">
<font-face units-per-em="1024" ascent="960" descent="-64" />
<missing-glyph horiz-adv-x="1024" />
<glyph unicode="&#x20;" horiz-adv-x="512" d="" />
<glyph unicode="&#xe900;" glyph-name="lsdi-add-plus" d="M512 32c-19.2 0-38.4 0-51.2 6.4-19.2 6.4-32 12.8-44.8 25.6s-19.2 32-25.6 44.8c-6.4 6.4-6.4 12.8-6.4 147.2 0 25.6 0 44.8 0 57.6-12.8 0-51.2 6.4-153.6 6.4-25.6 0-38.4 0-51.2 6.4-38.4 12.8-64 38.4-70.4 70.4s-6.4 70.4 0 102.4c0 19.2 6.4 32 19.2 44.8s32 19.2 44.8 25.6c12.8 6.4 25.6 6.4 51.2 6.4 102.4 0 140.8 0 153.6 6.4 6.4 12.8 6.4 51.2 6.4 153.6 0 25.6 0 38.4 6.4 51.2 0 12.8 12.8 32 25.6 44.8s32 19.2 44.8 25.6c32 6.4 70.4 6.4 102.4 0 19.2-6.4 32-12.8 44.8-25.6s19.2-32 25.6-44.8c6.4-12.8 6.4-25.6 6.4-51.2 0-96 6.4-134.4 6.4-153.6 12.8-6.4 51.2-6.4 153.6-6.4 25.6 0 38.4 0 51.2-6.4 19.2-6.4 32-12.8 44.8-25.6s19.2-25.6 25.6-44.8c6.4-32 6.4-70.4 0-102.4-6.4-19.2-12.8-32-25.6-44.8s-25.6-19.2-44.8-25.6c-12.8-6.4-32-6.4-51.2-6.4-108.8 0-140.8-6.4-153.6-6.4 0-6.4 0-32 0-57.6 0-134.4 0-140.8-6.4-147.2-6.4-19.2-12.8-32-25.6-44.8s-32-19.2-44.8-25.6c-19.2-6.4-38.4-6.4-57.6-6.4zM512 800c-12.8 0-25.6 0-32-6.4-6.4 0-12.8-6.4-19.2-12.8-6.4 0-6.4-6.4-12.8-12.8 0-6.4 0-19.2 0-32 0-153.6-6.4-185.6-25.6-198.4-12.8-19.2-44.8-25.6-198.4-25.6-19.2 0-25.6 0-32 0s-12.8-6.4-19.2-12.8-6.4-12.8-6.4-19.2c-6.4-19.2-6.4-51.2 0-70.4 0-6.4 12.8-19.2 25.6-25.6 6.4 0 12.8 0 32 0 153.6 0 185.6-6.4 198.4-25.6 25.6-19.2 25.6-51.2 25.6-102.4 0-108.8 0-128 0-134.4s6.4-12.8 12.8-12.8c6.4-6.4 12.8-6.4 19.2-12.8 19.2-6.4 51.2-6.4 70.4 0 6.4 0 12.8 6.4 19.2 12.8 0 6.4 0 12.8 6.4 19.2v0c0 0 0 19.2 0 128 0 51.2 0 83.2 25.6 102.4 12.8 19.2 44.8 25.6 198.4 25.6 19.2 0 32 0 32 0 6.4 0 12.8 6.4 19.2 12.8s6.4 12.8 12.8 19.2c6.4 19.2 6.4 51.2 0 70.4 0 6.4-6.4 12.8-12.8 19.2-6.4 0-12.8 0-19.2 6.4-6.4 0-19.2 0-32 0-153.6 0-185.6 6.4-198.4 25.6-19.2 12.8-25.6 44.8-25.6 198.4 0 12.8 0 25.6 0 32s-6.4 12.8-12.8 19.2c-6.4 6.4-12.8 6.4-19.2 6.4-6.4 6.4-19.2 6.4-32 6.4z" />
<glyph unicode="&#xe901;" glyph-name="lsdi-add-plus-circle" d="M512 832c211.2 0 384-172.8 384-384s-172.8-384-384-384c-211.2 0-384 172.8-384 384s172.8 384 384 384zM512 896c-246.4 0-448-201.6-448-448s201.6-448 448-448c246.4 0 448 201.6 448 448s-201.6 448-448 448zM768 480h-224v224h-64v-224h-224v-64h224v-224h64v224h224v64z" />
<glyph unicode="&#xe902;" glyph-name="lsdi-ai-search" d="M665.485 487.168c4.698-12.374 16.64-20.907 29.869-20.907s25.171 8.533 29.869 20.907l11.52 30.72c12.8 34.133 19.2 51.2 28.16 60.16 8.87 8.874 25.683 15.232 59.987 28.16l1.024 0.426 29.869 11.094c12.371 4.693 20.902 16.64 20.902 29.866s-8.531 25.174-20.902 29.867l-30.72 11.52c-34.138 12.8-51.2 19.2-60.16 28.16-8.877 8.875-15.232 25.728-28.25 60.075l-0.339 0.938-11.091 29.867c-2.31 6.077-6.394 11.32-11.718 15.048s-11.648 5.77-18.15 5.859c-13.229 0-25.171-8.534-29.869-20.907l-11.52-30.72c-12.8-34.133-19.197-51.2-28.157-60.16-8.874-8.875-25.728-15.275-60.074-28.245l-0.939-0.342-29.867-11.093c-12.373-4.693-20.906-16.64-20.906-29.867s8.533-25.173 20.906-29.866l30.72-11.52c34.134-12.8 51.2-19.2 60.16-28.16 8.875-8.875 15.229-25.728 28.247-60.075l0.339-0.939 11.091-29.866zM671.034 623.274c-9.811 10.24-21.331 17.494-36.266 24.32 14.506 6.827 26.026 14.080 36.266 24.32 10.24 9.814 17.491 21.334 24.32 36.267 6.829-14.507 14.080-26.027 24.32-36.267 9.811-10.24 21.331-17.493 36.269-24.32-14.509-6.826-26.029-14.080-36.269-24.32-10.24-9.813-17.491-21.333-24.32-36.266-6.829 14.506-14.080 26.026-24.32 36.266zM503.354 124.928c-182.187 0-330.667 148.48-330.667 330.666s148.48 330.667 330.667 330.667c17.493 0 32-14.507 32-32s-14.507-32-32-32c-147.2 0-266.667-119.467-266.667-266.667 0-147.197 119.467-266.666 266.667-266.666s266.668 119.469 266.668 266.666c0 17.494 14.502 32 32 32 17.491 0 32-14.506 32-32 0.090-76.655-26.624-150.929-75.52-209.962l151.462-151.469c12.378-12.371 12.378-32.851 0-45.222-6.4-6.4-14.502-9.389-22.611-9.389s-16.211 2.989-22.611 9.389l-151.469 151.462c-59.021-48.883-133.279-75.558-209.919-75.475z" />
<glyph unicode="&#xe903;" glyph-name="lsdi-bank" d="M915.2-12.8h-806.4c-12.8 0-25.6 6.4-38.4 12.8-12.8 12.8-12.8 25.6-12.8 38.4 0 44.8 19.2 83.2 44.8 115.2 12.8 12.8 25.6 19.2 38.4 25.6v320c-44.8 6.4-76.8 25.6-83.2 57.6 0 12.8 0 19.2 0 32 0 64 25.6 102.4 76.8 134.4l172.8 96c96 57.6 147.2 89.6 204.8 89.6s108.8-25.6 204.8-83.2l172.8-96c51.2-32 76.8-70.4 76.8-134.4 0-19.2 0-25.6 0-32-12.8-38.4-38.4-57.6-83.2-57.6v-320c12.8-6.4 25.6-19.2 38.4-25.6 32-32 44.8-70.4 44.8-115.2 0-12.8-6.4-25.6-12.8-38.4s-19.2-19.2-38.4-19.2zM115.2 51.2h787.2c0 19.2-12.8 44.8-25.6 57.6-19.2 19.2-44.8 25.6-70.4 25.6h-595.2c-25.6 0-51.2-12.8-70.4-25.6-12.8-12.8-19.2-32-25.6-57.6zM716.8 204.8h96c6.4 0 6.4 0 12.8 0v294.4h-108.8v-294.4zM204.8 499.2v-300.8c6.4 0 6.4 0 12.8 0h96v300.8h-108.8zM371.2 204.8h275.2v294.4h-275.2v-294.4zM857.6 563.2h19.2c25.6 0 32 6.4 32 12.8 0 0 0 12.8 0 19.2 0 38.4-12.8 57.6-44.8 76.8l-179.2 96c-172.8 96-172.8 96-345.6 0l-172.8-96c-38.4-19.2-51.2-38.4-51.2-76.8 0-6.4 0-19.2 0-19.2 0-6.4 0-12.8 32-12.8h19.2c0 0 0 0 6.4 0h166.4c0 0 0 0 6.4 0h339.2c0 0 0 0 6.4 0h166.4c-6.4 0-6.4 0 0 0zM512 627.2c-19.2 0-32 12.8-32 32s12.8 32 32 32v0c19.2 0 32-12.8 32-32s-12.8-32-32-32z" />
<glyph unicode="&#xe904;" glyph-name="lsdi-card-exchange" d="M684.8 32c-12.8 0-19.2 6.4-25.6 12.8s-6.4 19.2 0 32l38.4 70.4c6.4 12.8 25.6 19.2 44.8 12.8 12.8-6.4 19.2-25.6 12.8-44.8l-12.8-19.2c96 25.6 166.4 115.2 166.4 217.6 0 19.2 12.8 32 32 32s32-12.8 32-32c0-153.6-134.4-281.6-288-281.6zM358.4 32h-32c-115.2 0-172.8 0-217.6 32-6.4 6.4-12.8 12.8-19.2 19.2-38.4 38.4-38.4 96-38.4 192 0 12.8 0 25.6 0 38.4 0 0 0 0 0 0s0 0 0 6.4c0 70.4 6.4 115.2 38.4 147.2 6.4 6.4 12.8 12.8 19.2 19.2 44.8 32 102.4 32 217.6 32h25.6c115.2 0 172.8 0 217.6-32 6.4 0 12.8-6.4 19.2-12.8 32-32 38.4-76.8 38.4-147.2 0 0 0 0 0-6.4 0 0 0 0 0 0 0-12.8 0-25.6 0-38.4 0-102.4 0-153.6-38.4-192-6.4-12.8-12.8-19.2-19.2-25.6-44.8-32-102.4-32-211.2-32zM115.2 288c0-6.4 0-6.4 0-12.8 0-89.6 0-128 19.2-153.6 6.4-6.4 6.4-6.4 12.8-12.8 25.6-19.2 76.8-19.2 179.2-19.2h25.6c96 0 147.2 0 179.2 19.2 6.4 0 6.4 6.4 12.8 12.8 19.2 19.2 19.2 57.6 19.2 153.6 0 6.4 0 6.4 0 12.8h-448zM115.2 352h448c0 38.4-6.4 64-19.2 76.8-6.4 0-6.4 6.4-12.8 12.8-25.6 19.2-76.8 19.2-172.8 19.2h-32c-96 0-147.2 0-179.2-19.2-6.4 0-6.4-6.4-12.8-12.8-6.4-12.8-12.8-38.4-19.2-76.8zM723.2 371.2c-19.2 0-32 12.8-32 32s12.8 32 32 32c83.2 0 121.6 0 147.2 19.2 6.4 0 6.4 6.4 12.8 12.8 19.2 19.2 19.2 57.6 19.2 153.6 0 6.4 0 6.4 0 12.8h-448c0-6.4 0-6.4 0-12.8 0-19.2-12.8-32-32-32s-25.6 12.8-25.6 32c0 12.8 0 25.6 0 38.4 0 0 0 0 0 0s0 0 0 6.4c0 70.4 6.4 115.2 38.4 147.2 6.4 6.4 12.8 12.8 19.2 19.2 44.8 32 102.4 32 217.6 32h25.6c115.2 0 172.8 0 217.6-32 6.4-6.4 12.8-12.8 19.2-19.2 32-32 38.4-76.8 38.4-147.2 0 0 0 0 0-6.4 0 0 0 0 0 0 0-12.8 0-25.6 0-38.4 0-102.4 0-153.6-38.4-192-6.4-6.4-12.8-12.8-19.2-19.2-44.8-32-102.4-38.4-192-38.4v0zM460.8 691.2h448c0 38.4-6.4 64-19.2 76.8-6.4 6.4-6.4 6.4-12.8 12.8-25.6 19.2-76.8 19.2-179.2 19.2h-25.6c-102.4 0-147.2 0-179.2-19.2-6.4-6.4-6.4-6.4-12.8-12.8-12.8-12.8-19.2-32-19.2-76.8zM83.2 544c-12.8 0-32 12.8-32 32 0 160 128 288 288 288 12.8 0 19.2-6.4 25.6-12.8s6.4-19.2 0-32l-32-76.8c-6.4-12.8-25.6-19.2-44.8-12.8s-19.2 25.6-12.8 44.8l12.8 19.2c-96-25.6-172.8-115.2-172.8-217.6 0-19.2-12.8-32-32-32z" />
<glyph unicode="&#xe905;" glyph-name="lsdi-file-edit-pencil" d="M588.8 844.8c70.4 0 108.8 0 134.4-6.4 38.4-12.8 70.4-44.8 89.6-83.2 6.4-25.6 6.4-57.6 6.4-128v-134.4c0-19.2 12.8-32 32-32s32 12.8 32 32v134.4c0 76.8 0 115.2-12.8 147.2-19.2 57.6-70.4 96-128 121.6-38.4 12.8-76.8 12.8-160 12.8-12.8 0-19.2 0-32 0 0 0 0 0 0 0s0 0 0 0c-115.2 0-179.2 0-236.8-19.2-96-32-172.8-102.4-204.8-192-12.8-64-12.8-128-12.8-256v-108.8c0-140.8 0-204.8 44.8-262.4 12.8-12.8 25.6-32 44.8-38.4 51.2-38.4 121.6-38.4 243.2-38.4v0c19.2 0 32 12.8 32 32s-12.8 32-32 32c-115.2 0-172.8 0-211.2 25.6-12.8 6.4-19.2 19.2-32 25.6-32 38.4-32 96-32 224v108.8c0 0 0 6.4 0 6.4s0 0 0 0c0 57.6 51.2 108.8 115.2 108.8 6.4 0 12.8 0 25.6 0 25.6 0 51.2 0 76.8 6.4 19.2 6.4 32 12.8 44.8 25.6s19.2 25.6 25.6 44.8c12.8 25.6 6.4 51.2 6.4 76.8 0 6.4 0 12.8 0 25.6s0 25.6 6.4 44.8c6.4 12.8 12.8 25.6 25.6 38.4 12.8 0 25.6 12.8 38.4 12.8 12.8 6.4 25.6 6.4 44.8 6.4 6.4 6.4 19.2 6.4 25.6 6.4zM396.8 800c-6.4-19.2-12.8-44.8-12.8-70.4 0-6.4 0-12.8 0-25.6 0-19.2 0-38.4 0-57.6 0 0-6.4-6.4-12.8-12.8s-6.4-6.4-12.8-12.8c-12.8-6.4-38.4 0-57.6 0-6.4 0-19.2 0-25.6 0-44.8 0-83.2-12.8-115.2-38.4 0 38.4 6.4 64 12.8 83.2 32 70.4 89.6 128 166.4 160 25.6 6.4 51.2 12.8 83.2 12.8-12.8-12.8-19.2-25.6-25.6-38.4zM921.6 307.2c-6.4 12.8-12.8 19.2-19.2 32l-32 32c-38.4 38.4-96 38.4-134.4 0l-153.6-153.6c-19.2-19.2-25.6-38.4-32-57.6l-19.2-96c0-6.4 0-19.2 0-25.6s6.4-19.2 12.8-25.6c6.4-6.4 12.8-12.8 19.2-12.8s12.8 0 12.8 0 6.4 0 12.8 0l96 19.2c25.6 6.4 44.8 12.8 64 32l153.6 153.6c6.4 6.4 12.8 19.2 19.2 32s6.4 25.6 6.4 38.4c0 6.4 0 19.2-6.4 32zM864 256c0-6.4-6.4-6.4-6.4-12.8l-153.6-153.6c-6.4-6.4-19.2-12.8-25.6-12.8l-76.8-19.2 19.2 76.8c0 12.8 6.4 19.2 12.8 25.6l153.6 153.6c6.4 6.4 12.8 6.4 19.2 6.4s19.2-6.4 19.2-6.4l32-32c0 0 6.4-6.4 6.4-12.8s0-6.4 0-12.8 0 6.4 0 0z" />
<glyph unicode="&#xe906;" glyph-name="lsdi-frontend-dashboard" d="M768-12.8c-83.2 0-134.4 0-166.4 32s-38.4 89.6-38.4 172.8v83.2c0 83.2 0 134.4 32 166.4s83.2 32 166.4 32c83.2 0 134.4 0 166.4-32s32-83.2 32-166.4v-83.2c0-83.2 0-134.4-32-166.4s-76.8-38.4-160-38.4zM768 416c-76.8 0-108.8 0-121.6-12.8s-12.8-51.2-12.8-121.6v-89.6c0-76.8 0-108.8 12.8-121.6s51.2-12.8 121.6-12.8c76.8 0 108.8 0 121.6 12.8s12.8 51.2 12.8 121.6v83.2c0 76.8 0 108.8-12.8 121.6s-44.8 19.2-121.6 19.2zM300.8-12.8h-89.6c-44.8 0-64 0-89.6 6.4-12.8 6.4-25.6 12.8-38.4 25.6-6.4 12.8-12.8 25.6-19.2 44.8s-6.4 44.8-6.4 89.6c0 44.8 0 64 6.4 89.6 6.4 12.8 12.8 25.6 25.6 38.4s25.6 19.2 38.4 25.6c19.2 6.4 44.8 6.4 89.6 6.4h83.2c44.8 0 64 0 89.6-6.4 12.8-6.4 25.6-12.8 38.4-25.6s19.2-25.6 25.6-38.4c6.4-19.2 6.4-44.8 6.4-89.6s0-64-6.4-89.6c-6.4-12.8-12.8-25.6-25.6-38.4s-25.6-19.2-44.8-25.6c-19.2-12.8-44.8-12.8-83.2-12.8zM211.2 243.2c-32 0-51.2 0-64-6.4-6.4 0-12.8-6.4-19.2-12.8s-6.4-12.8-12.8-19.2-6.4-25.6-6.4-64c0-32 0-51.2 6.4-64 0-6.4 6.4-12.8 12.8-19.2s12.8-6.4 19.2-12.8 25.6-6.4 64-6.4h83.2c32 0 51.2 0 64 6.4 6.4 0 12.8 6.4 19.2 12.8s6.4 12.8 12.8 19.2 6.4 25.6 6.4 64c0 32 0 51.2-6.4 64 0 6.4-6.4 12.8-12.8 19.2s-12.8 6.4-19.2 12.8-25.6 6.4-64 6.4h-83.2zM256 416c-83.2 0-134.4 0-166.4 32s-38.4 83.2-38.4 172.8v83.2c0 83.2 0 134.4 32 166.4s89.6 38.4 172.8 38.4c83.2 0 134.4 0 166.4-32s38.4-89.6 38.4-172.8v-83.2c0-83.2 0-134.4-32-166.4s-89.6-38.4-172.8-38.4zM256 844.8c-76.8 0-108.8 0-121.6-12.8s-19.2-51.2-19.2-128v-83.2c0-76.8 0-108.8 12.8-121.6s51.2-19.2 128-19.2c76.8 0 108.8 0 121.6 12.8s12.8 51.2 12.8 121.6v89.6c0 76.8 0 108.8-12.8 121.6s-44.8 19.2-121.6 19.2zM812.8 588.8h-83.2c-44.8 0-64 0-89.6 6.4-19.2 6.4-32 12.8-38.4 25.6-12.8 12.8-19.2 25.6-25.6 38.4-12.8 19.2-12.8 44.8-12.8 89.6s0 64 6.4 89.6c6.4 12.8 12.8 25.6 25.6 38.4 12.8 6.4 25.6 12.8 44.8 19.2s44.8 6.4 89.6 6.4h83.2c44.8 0 64 0 89.6-6.4 12.8-6.4 25.6-12.8 38.4-25.6 6.4-6.4 12.8-19.2 19.2-38.4s6.4-44.8 6.4-89.6c0-44.8 0-64-6.4-89.6-6.4-12.8-12.8-25.6-25.6-38.4s-25.6-19.2-38.4-25.6c-19.2 0-44.8 0-83.2 0zM723.2 844.8c-32 0-51.2 0-64-6.4-6.4 0-12.8-6.4-19.2-12.8 0-6.4-6.4-6.4-6.4-12.8-6.4-12.8-6.4-25.6-6.4-64s0-51.2 6.4-64c0-6.4 6.4-12.8 12.8-19.2s12.8-6.4 19.2-12.8 25.6-6.4 64-6.4h83.2c32 0 51.2 0 64 6.4 6.4 0 12.8 6.4 19.2 12.8s6.4 12.8 12.8 19.2 6.4 25.6 6.4 64 0 51.2-6.4 64c0 6.4-6.4 12.8-12.8 19.2s-12.8 6.4-19.2 12.8-25.6 6.4-64 6.4h-89.6z" />
<glyph unicode="&#xe907;" glyph-name="lsdi-label-important" d="M556.8 76.8h-288c-115.2 0-172.8 0-204.8 51.2-25.6 57.6 6.4 102.4 70.4 198.4 44.8 64 64 96 64 121.6 0 32-19.2 64-64 128-64 96-96 140.8-70.4 192 32 51.2 89.6 51.2 204.8 51.2h288c89.6 0 134.4 0 172.8-19.2 44.8-19.2 70.4-57.6 121.6-128 76.8-102.4 115.2-153.6 115.2-224s-38.4-121.6-115.2-224c-51.2-70.4-76.8-108.8-121.6-128s-83.2-19.2-172.8-19.2zM268.8 755.2c-76.8 0-140.8 0-147.2-12.8-12.8-19.2 25.6-70.4 64-134.4 51.2-70.4 76.8-108.8 76.8-160s-25.6-89.6-76.8-166.4c-44.8-64-76.8-115.2-70.4-128 12.8-12.8 76.8-12.8 153.6-12.8h288c76.8 0 115.2 0 147.2 12.8s51.2 44.8 102.4 108.8 102.4 140.8 102.4 185.6-32 89.6-102.4 185.6c-44.8 64-70.4 96-102.4 108.8s-70.4 12.8-147.2 12.8h-288z" />
<glyph unicode="&#xe908;" glyph-name="lsdi-list-view" d="M876.8-12.8h-729.6c-64 0-89.6 25.6-89.6 89.6v51.2c0 64 25.6 89.6 89.6 89.6h736c64 0 89.6-25.6 89.6-89.6v-51.2c0-64-25.6-89.6-96-89.6zM121.6 57.6c0 0 6.4 0 25.6 0h736c19.2 0 25.6 0 25.6 0s0 6.4 0 25.6v51.2c0 19.2 0 25.6 0 25.6s-6.4 0-25.6 0h-736c-19.2 0-25.6 0-25.6 0s0-6.4 0-25.6v-51.2c-6.4-19.2 0-25.6 0-25.6s0 0 0 0zM876.8 332.8h-729.6c-64 0-89.6 25.6-89.6 89.6v51.2c0 64 25.6 89.6 89.6 89.6h736c64 0 89.6-25.6 89.6-89.6v-51.2c0-64-25.6-89.6-96-89.6zM121.6 396.8c0 0 6.4 0 25.6 0h736c19.2 0 25.6 0 25.6 0s0 0 0 0 0 6.4 0 25.6v51.2c0 19.2 0 25.6 0 25.6s-6.4 0-25.6 0h-736c-19.2 0-25.6 0-25.6 0s0-6.4 0-25.6v-51.2c-6.4-19.2 0-25.6 0-25.6s0 0 0 0zM876.8 672h-729.6c-64 0-89.6 25.6-89.6 89.6v51.2c0 64 25.6 89.6 89.6 89.6h736c64 0 89.6-25.6 89.6-89.6v-51.2c0-64-25.6-89.6-96-89.6zM121.6 736c0 0 6.4 0 25.6 0h736c19.2 0 25.6 0 25.6 0s0 0 0 0 0 6.4 0 25.6v51.2c0 19.2 0 25.6 0 25.6s-6.4 0-25.6 0h-736c-19.2 0-25.6 0-25.6 0s0-6.4 0-25.6v-51.2c-6.4-19.2 0-25.6 0-25.6s0 0 0 0z" />
<glyph unicode="&#xe909;" glyph-name="lsdi-location" d="M512 307.2c-25.6 0-44.8 6.4-70.4 12.8-19.2 12.8-38.4 25.6-57.6 44.8s-32 32-38.4 57.6c-12.8 19.2-12.8 44.8-12.8 70.4 0 51.2 19.2 96 51.2 128 70.4 70.4 185.6 70.4 256 0 32-32 51.2-76.8 51.2-128 0-25.6-6.4-44.8-12.8-70.4-6.4-19.2-19.2-44.8-38.4-57.6s-38.4-32-57.6-44.8c-25.6-6.4-44.8-12.8-70.4-12.8zM512 608c-32 0-64-12.8-83.2-32s-32-51.2-32-83.2c0-12.8 0-32 6.4-44.8s12.8-25.6 25.6-38.4 25.6-19.2 38.4-25.6c25.6-12.8 64-12.8 89.6 0 12.8 6.4 25.6 12.8 38.4 25.6 12.8 6.4 19.2 19.2 25.6 38.4s6.4 32 6.4 44.8c0 32-12.8 64-32 83.2-25.6 19.2-51.2 32-83.2 32zM512-12.8c-19.2 0-38.4 6.4-57.6 12.8-153.6 102.4-358.4 256-358.4 492.8 0 224 192 416 416 416s416-192 416-416c0-179.2-115.2-339.2-358.4-486.4-19.2-12.8-38.4-19.2-57.6-19.2zM512 844.8c-192 0-352-160-352-352 0-204.8 185.6-345.6 326.4-435.2 12.8-6.4 32-6.4 44.8 0 217.6 134.4 326.4 275.2 326.4 435.2 6.4 192-153.6 352-345.6 352z" />
<glyph unicode="&#xe90a;" glyph-name="lsdi-login-method" d="M896-12.8c-6.4 0-19.2 0-25.6 6.4l-38.4 44.8-38.4-38.4c-12.8-12.8-32-12.8-44.8 0s-12.8 32 0 44.8l38.4 38.4-44.8 44.8c-12.8 12.8-12.8 32 0 44.8s32 12.8 44.8 0l44.8-44.8 38.4 38.4c12.8 12.8 32 12.8 44.8 0s12.8-32 0-44.8l-38.4-38.4 38.4-38.4c12.8-12.8 12.8-32 0-44.8 0-6.4-12.8-12.8-19.2-12.8zM576-12.8c-6.4 0-19.2 0-25.6 6.4l-38.4 44.8-38.4-38.4c-12.8-12.8-32-12.8-44.8 0s-12.8 32 0 44.8l38.4 38.4-44.8 44.8c-12.8 12.8-12.8 32 0 44.8s32 12.8 44.8 0l44.8-44.8 38.4 38.4c12.8 12.8 32 12.8 44.8 0s12.8-32 0-44.8l-38.4-38.4 38.4-38.4c12.8-12.8 12.8-32 0-44.8 0-6.4-12.8-12.8-19.2-12.8zM256-12.8c-6.4 0-19.2 0-25.6 6.4l-38.4 44.8-38.4-38.4c-12.8-12.8-32-12.8-44.8 0s-12.8 32 0 44.8l38.4 38.4-44.8 44.8c-12.8 12.8-12.8 32 0 44.8s32 12.8 44.8 0l44.8-44.8 38.4 38.4c12.8 12.8 32 12.8 44.8 0s12.8-32 0-44.8l-38.4-38.4 38.4-38.4c12.8-12.8 12.8-32 0-44.8 0-6.4-12.8-12.8-19.2-12.8zM576 268.8h-128c-83.2 0-134.4 0-166.4 32s-38.4 83.2-38.4 166.4v25.6c0 83.2 0 134.4 32 166.4 25.6 19.2 44.8 25.6 76.8 32v57.6c0 44.8 19.2 83.2 44.8 115.2 57.6 57.6 166.4 57.6 224 0 32-32 44.8-70.4 44.8-115.2v-57.6c32-6.4 51.2-12.8 70.4-32 32-32 32-83.2 32-166.4v-19.2c0-83.2 0-134.4-32-166.4s-76.8-38.4-160-38.4zM448 627.2c-76.8 0-108.8 0-121.6-12.8-19.2-12.8-19.2-51.2-19.2-121.6v-19.2c0-76.8 0-108.8 12.8-121.6s51.2-19.2 128-19.2h128c76.8 0 108.8 0 121.6 12.8s12.8 51.2 12.8 121.6v25.6c0 76.8 0 108.8-12.8 121.6s-44.8 12.8-121.6 12.8h-128zM512 844.8c-25.6 0-51.2-12.8-70.4-32-12.8-19.2-25.6-38.4-25.6-64v-51.2c12.8 0 19.2 0 32 0h128c12.8 0 19.2 0 32 0v51.2c0 25.6-12.8 51.2-25.6 70.4-19.2 12.8-44.8 25.6-70.4 25.6z" />
<glyph unicode="&#xe90b;" glyph-name="lsdi-menu-square" d="M768-12.8c-70.4 0-108.8 0-140.8 19.2-19.2 12.8-32 25.6-44.8 44.8-19.2 32-19.2 70.4-19.2 140.8s0 108.8 19.2 140.8c12.8 19.2 25.6 32 44.8 44.8 32 19.2 70.4 19.2 140.8 19.2s108.8 0 140.8-19.2c19.2-12.8 32-25.6 44.8-44.8 19.2-32 19.2-70.4 19.2-140.8s0-108.8-19.2-140.8c-12.8-19.2-25.6-32-44.8-44.8-32-19.2-70.4-19.2-140.8-19.2zM768 332.8c-57.6 0-89.6 0-108.8-12.8-6.4-6.4-19.2-12.8-25.6-25.6-12.8-19.2-12.8-51.2-12.8-108.8s0-89.6 12.8-108.8c6.4-6.4 12.8-19.2 25.6-25.6 19.2-12.8 51.2-12.8 108.8-12.8s89.6 0 108.8 12.8c6.4 6.4 19.2 12.8 25.6 25.6 12.8 19.2 12.8 51.2 12.8 108.8s0 89.6-12.8 108.8c-6.4 6.4-12.8 19.2-25.6 25.6-19.2 12.8-51.2 12.8-108.8 12.8zM256-12.8c-70.4 0-108.8 0-140.8 19.2-19.2 12.8-32 25.6-44.8 44.8-19.2 32-19.2 70.4-19.2 140.8s0 108.8 19.2 140.8c12.8 19.2 25.6 32 44.8 44.8 32 19.2 70.4 19.2 140.8 19.2s108.8 0 140.8-19.2c19.2-12.8 32-25.6 44.8-44.8 19.2-32 19.2-70.4 19.2-140.8s0-108.8-19.2-140.8c-12.8-19.2-25.6-32-44.8-44.8-32-19.2-70.4-19.2-140.8-19.2zM256 332.8c-57.6 0-89.6 0-108.8-12.8-6.4-6.4-19.2-12.8-25.6-25.6-12.8-19.2-12.8-51.2-12.8-108.8s0-89.6 12.8-108.8c6.4-6.4 12.8-19.2 25.6-25.6 19.2-12.8 51.2-12.8 108.8-12.8s89.6 0 108.8 12.8c6.4 6.4 19.2 12.8 25.6 25.6 12.8 19.2 12.8 51.2 12.8 108.8s0 89.6-12.8 108.8c-6.4 6.4-12.8 19.2-25.6 25.6-19.2 12.8-51.2 12.8-108.8 12.8zM768 499.2c-70.4 0-108.8 0-140.8 19.2-19.2 12.8-32 25.6-44.8 44.8-19.2 32-19.2 70.4-19.2 140.8s0 108.8 19.2 140.8c12.8 19.2 25.6 32 44.8 44.8 32 19.2 70.4 19.2 140.8 19.2s108.8 0 140.8-19.2c19.2-12.8 32-25.6 44.8-44.8 19.2-32 19.2-70.4 19.2-140.8s0-108.8-19.2-140.8c-12.8-19.2-25.6-32-44.8-44.8-32-19.2-70.4-19.2-140.8-19.2zM768 844.8c-57.6 0-89.6 0-108.8-12.8-6.4-6.4-19.2-12.8-25.6-25.6s-6.4-44.8-6.4-102.4c0-57.6 0-89.6 12.8-108.8 6.4-6.4 12.8-19.2 25.6-25.6 19.2-12.8 51.2-12.8 108.8-12.8s89.6 0 108.8 12.8c6.4 6.4 19.2 12.8 25.6 25.6 12.8 19.2 12.8 51.2 12.8 108.8s0 89.6-12.8 108.8c-6.4 6.4-12.8 19.2-25.6 25.6-25.6 6.4-57.6 6.4-115.2 6.4zM256 499.2c-70.4 0-108.8 0-140.8 19.2-19.2 12.8-32 25.6-44.8 44.8-19.2 32-19.2 70.4-19.2 140.8s0 108.8 19.2 140.8c12.8 19.2 25.6 32 44.8 44.8 32 19.2 70.4 19.2 140.8 19.2s108.8 0 140.8-19.2c19.2-12.8 32-25.6 44.8-44.8 19.2-32 19.2-70.4 19.2-140.8s0-108.8-19.2-140.8c-12.8-19.2-25.6-32-44.8-44.8-32-19.2-70.4-19.2-140.8-19.2zM256 844.8c-57.6 0-89.6 0-108.8-12.8-6.4-6.4-12.8-12.8-19.2-19.2-12.8-19.2-12.8-51.2-12.8-108.8s0-89.6 12.8-108.8c6.4-6.4 12.8-12.8 19.2-19.2 19.2-12.8 51.2-12.8 108.8-12.8s89.6 0 108.8 12.8c6.4 6.4 12.8 12.8 19.2 19.2 12.8 19.2 12.8 51.2 12.8 108.8s0 89.6-12.8 108.8c-6.4 6.4-12.8 12.8-19.2 19.2-19.2 12.8-51.2 12.8-108.8 12.8z" />
<glyph unicode="&#xe90c;" glyph-name="lsdi-payment" d="M934.4 832c-32 32-83.2 32-166.4 32h-512c-83.2 0-134.4 0-166.4-32s-38.4-83.2-38.4-172.8v-172.8c0-83.2 0-134.4 32-166.4s70.4-32 134.4-32c0-64 0-96 12.8-128 12.8-25.6 25.6-44.8 44.8-64s38.4-32 64-44.8c44.8-19.2 89.6-19.2 172.8-19.2h19.2c102.4 0 160 0 204.8 25.6 38.4 19.2 64 44.8 83.2 83.2s25.6 76.8 25.6 147.2c25.6 0 38.4 0 57.6 6.4 12.8 6.4 25.6 12.8 38.4 25.6s19.2 25.6 25.6 38.4c6.4 25.6 6.4 44.8 6.4 89.6v211.2c0 89.6 0 134.4-38.4 172.8zM704 115.2c-32-19.2-76.8-19.2-172.8-19.2h-19.2c-76.8 0-115.2 0-140.8 12.8-19.2 6.4-32 19.2-44.8 32s-25.6 25.6-32 44.8c-6.4 19.2-12.8 51.2-12.8 108.8h243.2c-6.4-19.2-12.8-32-12.8-51.2s12.8-32 32-32 32 12.8 32 32c0 25.6 12.8 51.2 25.6 70.4 19.2 19.2 44.8 25.6 70.4 25.6 19.2 0 32 12.8 32 32v76.8c0 25.6 12.8 51.2 25.6 70.4 12.8 12.8 25.6 19.2 38.4 25.6v-198.4c0-96 0-140.8-19.2-172.8 0-25.6-19.2-44.8-44.8-57.6zM908.8 448c0-32 0-51.2-6.4-64 0-6.4-6.4-12.8-12.8-19.2s-12.8-6.4-19.2-12.8c-6.4 0-19.2-6.4-32-6.4v230.4c0 19.2-12.8 32-32 32-44.8 0-83.2-19.2-115.2-44.8-32-32-44.8-70.4-44.8-115.2v-57.6c-25.6-6.4-51.2-19.2-70.4-38.4h-320c-76.8 0-108.8 0-121.6 12.8s-19.2 51.2-19.2 128v166.4c0 76.8 0 108.8 12.8 121.6s51.2 19.2 128 19.2h512c76.8 0 108.8 0 121.6-12.8s12.8-51.2 12.8-121.6v-217.6zM428.8 659.2c-19.2-19.2-32-51.2-32-83.2s12.8-64 32-83.2 51.2-32 83.2-32 64 12.8 83.2 32c19.2 19.2 32 51.2 32 83.2s-12.8 64-32 83.2c-44.8 44.8-121.6 44.8-166.4 0zM550.4 537.6c-19.2-19.2-57.6-19.2-76.8 0-6.4 12.8-12.8 25.6-12.8 38.4s6.4 25.6 12.8 38.4 25.6 12.8 38.4 12.8 25.6-6.4 38.4-12.8c6.4-12.8 12.8-25.6 12.8-38.4s-6.4-25.6-12.8-38.4z" />
<glyph unicode="&#xe90d;" glyph-name="lsdi-paypal" d="M838.4 659.2c6.4 57.6-12.8 115.2-51.2 160-44.8 57.6-108.8 89.6-185.6 89.6h-192c-51.2 0-76.8 0-102.4-12.8-19.2-12.8-32-19.2-38.4-38.4-19.2-19.2-25.6-51.2-32-96v0l-89.6-550.4c-6.4-51.2-12.8-83.2 6.4-108.8s51.2-25.6 108.8-25.6h19.2c12.8 0 19.2 0 32 0-6.4-19.2 0-44.8 19.2-57.6 6.4-19.2 32-32 51.2-32h83.2c38.4 0 70.4 25.6 76.8 64l32 185.6c0 6.4 6.4 6.4 12.8 6.4h76.8c128 0 230.4 83.2 262.4 204.8 12.8 83.2-19.2 166.4-89.6 211.2zM300.8 748.8c6.4 38.4 12.8 64 19.2 70.4 0 6.4 6.4 12.8 12.8 19.2 12.8 6.4 32 6.4 76.8 6.4h198.4c51.2 0 102.4-25.6 134.4-64s44.8-96 32-147.2c-12.8-57.6-44.8-102.4-89.6-140.8s-96-57.6-153.6-57.6h-51.2c-12.8 0-19.2 0-25.6 0-25.6 0-44.8-12.8-64-25.6-19.2-19.2-32-38.4-32-57.6 0-6.4 0-12.8-6.4-25.6l-19.2-140.8c0-19.2-6.4-38.4-6.4-44.8-6.4 0-25.6 0-44.8 0 0 0-19.2 0-19.2 0-25.6 0-51.2 0-57.6 6.4 0 6.4 0 32 6.4 57.6l89.6 550.4zM857.6 467.2c-19.2-89.6-102.4-160-198.4-160h-70.4c-38.4 0-70.4-25.6-76.8-64l-32-179.2c0-6.4-6.4-6.4-12.8-6.4h-83.2c-6.4 0-6.4 0-6.4 6.4v6.4l6.4 51.2c6.4 12.8 6.4 32 12.8 51.2l19.2 147.2c0 6.4 0 12.8 0 12.8 0 12.8 6.4 19.2 19.2 25.6 6.4 6.4 19.2 12.8 25.6 12.8s6.4 0 19.2 0h51.2c70.4 0 140.8 25.6 198.4 70.4 44.8 38.4 83.2 89.6 102.4 147.2 25.6-32 38.4-76.8 25.6-121.6z" />
<glyph unicode="&#xe90e;" glyph-name="lsdi-pencil-edit" d="M172.8 76.8c-6.4 0-19.2 6.4-25.6 6.4-6.4 6.4-12.8 19.2-6.4 32 12.8 64 32 128 51.2 160s38.4 51.2 89.6 102.4l352 352c0 0 0 0 0 0s0 0 0 0v0 0l57.6 57.6c44.8 44.8 121.6 44.8 166.4 0 12.8-19.2 25.6-51.2 25.6-83.2s-12.8-57.6-32-83.2l-409.6-409.6c-44.8-44.8-70.4-70.4-102.4-89.6s-96-32-160-51.2c-6.4 6.4-6.4 6.4-6.4 6.4zM646.4 659.2l-326.4-326.4c-44.8-44.8-64-64-76.8-89.6-6.4-19.2-19.2-51.2-32-96 38.4 12.8 76.8 19.2 96 32 25.6 12.8 44.8 32 89.6 76.8l326.4 326.4-76.8 76.8zM691.2 704l76.8-70.4 38.4 38.4c12.8 12.8 12.8 25.6 12.8 38.4s-6.4 25.6-12.8 38.4c-19.2 19.2-57.6 19.2-76.8 0l-38.4-44.8zM723.2 76.8h-256c-19.2 0-32 12.8-32 32s12.8 32 32 32h256c19.2 0 32-12.8 32-32s-12.8-32-32-32z" />
<glyph unicode="&#xe90f;" glyph-name="lsdi-property-edit" d="M614.4-12.8c-12.8 0-19.2 0-32 6.4-32 19.2-19.2 57.6-12.8 96 6.4 12.8 6.4 19.2 6.4 25.6 6.4 25.6 12.8 57.6 25.6 70.4 0 0 6.4 12.8 89.6 96 6.4 6.4 19.2 19.2 32 32 44.8 51.2 70.4 70.4 89.6 70.4 32 12.8 70.4 6.4 115.2-38.4 25.6-25.6 51.2-57.6 38.4-108.8-12.8-25.6-32-51.2-57.6-70.4-12.8-12.8-19.2-19.2-32-32-19.2-19.2-38.4-38.4-51.2-51.2-32-32-51.2-51.2-64-57.6s-38.4-12.8-64-19.2c-12.8 0-25.6-6.4-32-6.4-19.2-6.4-38.4-12.8-51.2-12.8zM627.2 44.8c0 0 0 0 0 0s0 0 0 0zM844.8 332.8c-6.4 0-12.8 0-12.8 0-6.4-6.4-38.4-38.4-57.6-57.6-12.8-12.8-25.6-25.6-38.4-38.4-51.2-51.2-76.8-76.8-83.2-83.2s-12.8-25.6-12.8-51.2c0-6.4-6.4-19.2-6.4-25.6s-6.4-12.8-6.4-25.6c6.4 0 12.8 0 19.2 6.4 12.8 0 25.6 6.4 38.4 6.4 19.2 6.4 38.4 6.4 44.8 12.8s25.6 25.6 51.2 51.2c12.8 12.8 32 32 51.2 51.2 12.8 12.8 25.6 25.6 32 32 19.2 19.2 38.4 32 38.4 44.8 6.4 19.2 0 25.6-19.2 44.8 0 0 0 0-6.4 6.4-12.8 19.2-25.6 25.6-32 25.6zM467.2 32c-172.8 0-281.6 0-345.6 70.4-70.4 70.4-70.4 166.4-70.4 371.2 0 70.4 0 128 0 179.2 0 6.4 0 6.4 0 12.8s0 12.8 6.4 19.2c6.4 70.4 25.6 121.6 64 160 70.4 64 166.4 64 371.2 64s300.8 0 371.2-70.4c38.4-38.4 57.6-89.6 64-160 6.4-6.4 6.4-12.8 6.4-19.2s0-6.4 0-12.8c0-51.2 0-108.8 0-179.2 0-19.2-12.8-32-32-32s-32 12.8-32 32c0 64 0 115.2 0 160h-748.8c0-44.8 0-96 0-160 0-179.2 0-275.2 51.2-326.4 44.8-44.8 134.4-51.2 300.8-51.2 19.2 0 32-12.8 32-32s-19.2-25.6-38.4-25.6zM128 691.2h729.6c-6.4 44.8-19.2 76.8-44.8 102.4-51.2 51.2-140.8 51.2-326.4 51.2-179.2 0-275.2 0-326.4-51.2-12.8-25.6-25.6-57.6-32-102.4zM492.8 243.2h-64c-19.2 0-32 12.8-32 32s12.8 32 32 32h64c19.2 0 32-12.8 32-32s-19.2-32-32-32zM300.8 243.2h-44.8c-19.2 0-32 12.8-32 32s12.8 32 32 32h44.8c19.2 0 32-12.8 32-32s-19.2-32-32-32zM684.8 416h-256c-19.2 0-32 12.8-32 32s12.8 32 32 32h256c19.2 0 32-12.8 32-32s-19.2-32-32-32zM300.8 416h-44.8c-19.2 0-32 12.8-32 32s12.8 32 32 32h44.8c19.2 0 32-12.8 32-32s-19.2-32-32-32z" />
<glyph unicode="&#xe910;" glyph-name="lsdi-right-arrow" d="M768 243.2c-6.4 0-19.2 0-25.6 6.4-12.8 12.8-12.8 32 0 44.8l115.2 115.2h-774.4c-12.8 6.4-32 19.2-32 38.4s12.8 32 32 32h774.4l-115.2 115.2c-12.8 12.8-12.8 32 0 44.8s32 12.8 44.8 0l172.8-166.4c0 0 0 0 0 0v0c0 0 6.4-6.4 6.4-12.8s0-6.4 0-12.8c0 0 0 0 0 0 0-6.4 0-6.4 0-12.8s-6.4-6.4-6.4-12.8v0c0 0 0 0 0 0v0 0c0 0 0 0 0 0v0l-166.4-166.4c-6.4-6.4-19.2-12.8-25.6-12.8z" />
<glyph unicode="&#xe911;" glyph-name="lsdi-search-area" d="M256-12.8c0 0 0 0 0 0-70.4 6.4-115.2 25.6-147.2 57.6s-51.2 76.8-57.6 140.8c0 19.2 12.8 32 25.6 32 19.2 0 32-12.8 32-25.6 6.4-51.2 19.2-83.2 38.4-102.4s51.2-32 102.4-38.4c19.2 0 32-19.2 25.6-32 12.8-19.2 0-32-19.2-32zM940.8-12.8c-6.4 0-19.2 0-25.6 6.4l-108.8 108.8c-51.2-38.4-108.8-64-172.8-64-76.8 0-147.2 32-198.4 83.2s-83.2 128-83.2 198.4c0 38.4 6.4 70.4 19.2 108.8 12.8 32 32 64 64 89.6 25.6 25.6 57.6 44.8 89.6 64 70.4 25.6 147.2 25.6 217.6 0 32-12.8 64-32 89.6-64 25.6-25.6 44.8-57.6 64-89.6 12.8-32 19.2-70.4 19.2-108.8 0-64-19.2-128-64-172.8l108.8-108.8c12.8-12.8 12.8-32 0-44.8-6.4 0-12.8-6.4-19.2-6.4zM633.6 544c-25.6 0-57.6-6.4-83.2-19.2-25.6-6.4-51.2-25.6-70.4-44.8s-38.4-44.8-44.8-70.4c-12.8-25.6-19.2-57.6-19.2-83.2 0-57.6 25.6-115.2 64-153.6 83.2-83.2 224-83.2 307.2 0 38.4 38.4 64 96 64 153.6 0 25.6-6.4 57.6-19.2 83.2s-25.6 51.2-44.8 70.4c-19.2 19.2-44.8 38.4-70.4 44.8-25.6 12.8-57.6 19.2-83.2 19.2zM83.2 332.8c-19.2 0-32 12.8-32 32v166.4c0 19.2 12.8 32 32 32s32-12.8 32-32v-172.8c0-12.8-12.8-25.6-32-25.6zM83.2 672c0 0 0 0 0 0-19.2 0-32 19.2-32 32 6.4 70.4 25.6 108.8 57.6 140.8 32 38.4 76.8 57.6 147.2 64 19.2 0 32-12.8 32-25.6 0-19.2-12.8-32-25.6-32-57.6-12.8-83.2-25.6-108.8-44.8-19.2-25.6-32-51.2-38.4-102.4 0-19.2-12.8-32-32-32zM940.8 672c-19.2 0-32 12.8-32 32-6.4 51.2-12.8 83.2-38.4 102.4-19.2 19.2-51.2 32-102.4 38.4-19.2 0-32 19.2-25.6 32 0 19.2 19.2 32 32 25.6 70.4-6.4 108.8-25.6 140.8-57.6s51.2-76.8 57.6-140.8c0-12.8-12.8-32-32-32 0 0 0 0 0 0zM595.2 844.8h-166.4c-19.2 0-32 12.8-32 32s12.8 32 32 32h172.8c19.2 0 32-12.8 32-32s-19.2-32-38.4-32z" />
<glyph unicode="&#xe912;" glyph-name="lsdi-second-bracket-square" d="M640 243.2c-19.2 0-32 12.8-32 25.6 0 19.2 12.8 32 25.6 32 25.6 0 38.4 6.4 38.4 12.8 12.8 12.8 12.8 51.2 12.8 128s0 108.8-12.8 128c0 6.4-6.4 12.8-32 19.2-19.2 0-32 19.2-25.6 32-6.4 19.2 12.8 32 25.6 32 25.6 0 57.6-6.4 76.8-32 32-32 32-83.2 32-172.8s0-134.4-32-172.8c-19.2-19.2-44.8-25.6-76.8-32 0 0 0 0 0 0zM384 243.2c0 0 0 0 0 0-32 0-57.6 6.4-83.2 32-32 38.4-32 83.2-32 172.8s0 134.4 32 172.8c25.6 19.2 57.6 25.6 83.2 32 19.2 0 32-12.8 32-25.6 0-19.2-12.8-32-25.6-32-32-12.8-38.4-19.2-44.8-19.2-12.8-19.2-12.8-51.2-12.8-128s0-108.8 12.8-128c6.4-6.4 12.8-12.8 38.4-12.8 19.2 0 32-19.2 25.6-32 6.4-19.2-6.4-32-25.6-32zM512 12.8c-198.4 0-300.8 0-371.2 70.4-64 64-64 166.4-64 364.8s0 300.8 70.4 371.2c64 64 166.4 64 364.8 64s300.8 0 371.2-70.4c70.4-70.4 70.4-166.4 70.4-371.2 0-198.4 0-300.8-70.4-371.2-70.4-57.6-172.8-57.6-371.2-57.6zM512 819.2c-179.2 0-275.2 0-326.4-51.2-44.8-44.8-44.8-140.8-44.8-320s0-275.2 51.2-326.4c51.2-51.2 140.8-51.2 326.4-51.2 179.2 0 275.2 0 326.4 51.2s51.2 140.8 51.2 326.4 0 275.2-51.2 326.4c-57.6 44.8-153.6 44.8-332.8 44.8z" />
<glyph unicode="&#xe913;" glyph-name="lsdi-stars" d="M192-12.8c-19.2 0-32 12.8-32 32v0c0 0 0 0 0 0s0 0 0 0c0 19.2-57.6 70.4-76.8 76.8-19.2 0-32 12.8-32 32s12.8 32 32 32v0c0 0 0 0 0 0v0c19.2 0 70.4 57.6 76.8 76.8 0 19.2 12.8 32 32 32s32-12.8 32-32v0c0 0 0 0 0 0v0c0 0 0 0 0 0s0 0 0 0c0-19.2 57.6-70.4 76.8-76.8 19.2 0 32-12.8 32-32s-12.8-32-32-32c0 0 0 0 0 0s0 0 0 0c-19.2 0-70.4-57.6-76.8-76.8 0-12.8-12.8-32-32-32zM153.6 128c12.8-12.8 25.6-25.6 38.4-38.4 12.8 12.8 25.6 25.6 38.4 38.4-12.8 12.8-25.6 25.6-38.4 38.4-12.8-12.8-25.6-25.6-38.4-38.4zM512 32c-19.2 0-32 12.8-32 32 0 172.8-179.2 352-352 352-19.2 0-32 12.8-32 32s12.8 32 32 32c172.8 0 352 179.2 352 352 0 19.2 12.8 32 32 32s32-12.8 32-32c0-172.8 179.2-352 352-352 19.2 0 32-12.8 32-32s-12.8-32-32-32c-172.8 0-352-179.2-352-352 0-19.2-12.8-32-32-32zM275.2 448c102.4-44.8 192-134.4 236.8-236.8 44.8 102.4 134.4 192 236.8 236.8-102.4 44.8-192 134.4-236.8 236.8-44.8-102.4-134.4-192-236.8-236.8zM812.8 588.8c-19.2 0-32 12.8-32 32 0 25.6-70.4 96-96 96-19.2 0-32 12.8-32 32s12.8 32 32 32c25.6 0 96 70.4 96 96 0 19.2 12.8 32 32 32s32-12.8 32-32c0-25.6 70.4-96 96-96 19.2 0 32-12.8 32-32s-12.8-32-32-32c-25.6 0-96-70.4-96-96 0-19.2-19.2-32-32-32zM755.2 748.8c19.2-12.8 38.4-32 57.6-57.6 12.8 19.2 32 38.4 57.6 57.6-19.2 12.8-38.4 32-57.6 57.6-19.2-25.6-38.4-44.8-57.6-57.6z" />
<glyph unicode="&#xe914;" glyph-name="lsdi-stripe" d="M458.333 18.47c-90.88 0-188.16 35.84-225.28 51.2-5.852 2.413-10.868 6.49-14.431 11.718-3.564 5.235-5.517 11.392-5.622 17.722v200.538c0 11.52 5.974 22.184 15.787 27.731 4.892 2.728 10.399 4.159 16 4.159s11.108-1.432 16-4.159c37.973-21.759 117.334-56.319 178.774-61.439 23.893-1.709 81.066-3.84 85.76 15.36 4.266 17.491-65.707 45.652-88.321 55.039l-11.946 5.12c-126.72 47.36-211.627 107.093-211.627 242.773 0 196.693 160 266.667 309.333 266.667 105.814 0 192.856-29.014 227.416-46.080 11.091-5.547 17.92-16.64 17.92-28.587v-192c0-10.667-5.12-20.48-14.080-26.453-4.326-2.973-9.331-4.806-14.554-5.329s-10.49 0.284-15.315 2.342c-173.228 69.973-237.228 47.787-242.348 40.533-1.28-15.36 35.414-35.84 69.547-43.946 88.749-16.214 259.412-93.014 259.412-265.811 0-210.349-221.439-266.669-351.999-266.669l-0.426-0.429zM277 120.87c41.386-15.36 114.346-38.4 181.333-38.4 11.946 0 288.003 2.138 288.003 202.669 0 162.559-200.109 201.812-208.643 203.092-49.067 11.093-127.574 47.787-119.894 114.347 2.134 20.053 13.654 37.546 32.427 48.64 46.080 27.733 136.96 19.626 253.012-21.334v124.587c-35.84 13.653-102.825 31.573-181.332 31.573-57.6 0-245.333-14.506-245.333-202.666 0-89.174 43.093-135.254 171.093-183.467l12.8-5.12c57.173-23.040 143.36-58.027 126.72-128.424-17.066-75.098-116.053-67.418-153.173-64.858-53.76 4.269-113.494 26.029-157.44 45.658v-126.72l0.427 0.422z" />
<glyph unicode="&#xe915;" glyph-name="lsdi-tag" d="M441.6-12.8c-32 0-70.4 12.8-96 32-96 76.8-185.6 160-256 256-44.8 64-44.8 147.2 6.4 204.8 108.8 128 224 243.2 352 352 19.2 12.8 38.4 25.6 64 25.6 115.2 12.8 262.4 12.8 339.2-25.6l64 64c12.8 12.8 32 12.8 44.8 0s12.8-32 0-44.8l-64-64c38.4-76.8 38.4-224 25.6-339.2 0-25.6-12.8-44.8-25.6-64-108.8-128-224-243.2-345.6-358.4-32-25.6-70.4-38.4-108.8-38.4zM646.4 800c-38.4 0-83.2 0-128-6.4-12.8 0-19.2-6.4-25.6-12.8-128-102.4-243.2-217.6-352-339.2v0c-32-32-32-83.2 0-121.6 70.4-89.6 153.6-172.8 243.2-243.2 38.4-25.6 89.6-25.6 121.6 0 121.6 108.8 236.8 224 339.2 352 6.4 6.4 12.8 19.2 12.8 25.6 12.8 128 6.4 230.4-12.8 281.6l-57.6-57.6c-12.8-12.8-32-12.8-44.8 0s-12.8 32 0 44.8l57.6 57.6c-32 12.8-89.6 19.2-153.6 19.2zM115.2 460.8v0 0zM403.2 224c-6.4 0-19.2 0-25.6 6.4l-83.2 89.6c-12.8 12.8-12.8 32 0 44.8s32 12.8 44.8 0l83.2-83.2c12.8-12.8 12.8-32 0-44.8 0-12.8-6.4-12.8-19.2-12.8z" />
<glyph unicode="&#xe916;" glyph-name="lsdi-user-circle" d="M512 908.8c-256 0-460.8-204.8-460.8-460.8s204.8-460.8 460.8-460.8c256 0 460.8 204.8 460.8 460.8s-204.8 460.8-460.8 460.8zM268.8 140.8l19.2 38.4c12.8 25.6 38.4 51.2 64 64s57.6 25.6 89.6 25.6h134.4c32 0 64-6.4 89.6-25.6s51.2-38.4 64-64l19.2-38.4c-70.4-51.2-153.6-89.6-243.2-89.6s-172.8 32-236.8 89.6zM806.4 185.6l-12.8 19.2c-19.2 38.4-51.2 70.4-89.6 89.6-38.4 25.6-83.2 38.4-121.6 38.4h-140.8c-38.4 0-83.2-12.8-121.6-38.4-38.4-19.2-70.4-51.2-89.6-89.6l-12.8-19.2c-64 70.4-102.4 160-102.4 262.4 0 217.6 179.2 396.8 396.8 396.8s396.8-179.2 396.8-396.8c0-102.4-38.4-192-102.4-262.4zM409.6 659.2c-25.6-25.6-44.8-64-44.8-102.4 0-44.8 12.8-76.8 44.8-108.8 25.6-25.6 64-44.8 102.4-44.8s76.8 12.8 102.4 44.8c25.6 25.6 44.8 64 44.8 102.4s-12.8 76.8-44.8 108.8c-51.2 57.6-153.6 57.6-204.8 0zM569.6 492.8c-32-32-89.6-32-121.6 0-12.8 19.2-19.2 38.4-19.2 64s6.4 44.8 25.6 57.6 32 25.6 57.6 25.6c25.6 0 44.8-6.4 57.6-25.6 19.2-12.8 25.6-38.4 25.6-57.6 0-25.6-6.4-44.8-25.6-64z" />
<glyph unicode="&#xe917;" glyph-name="lsdi-wizard" d="M940.8 652.8l-25.6 25.6c-19.2 19.2-38.4 25.6-57.6 25.6s-38.4-6.4-51.2-19.2l-518.4-518.4c-32-38.4-32-83.2 0-115.2 12.8-12.8 32-19.2 51.2-19.2s32 6.4 51.2 19.2l550.4 499.2c12.8 12.8 19.2 25.6 19.2 51.2 0 19.2-6.4 38.4-19.2 51.2zM345.6 96c-6.4-6.4-6.4 0-12.8 0v12.8l384 384 32-32-403.2-364.8zM896 601.6v0l-96-96-38.4 38.4 89.6 96h12.8l32-38.4zM646.4 780.8c0 19.2 38.4 57.6 57.6 57.6-19.2 0-57.6 38.4-57.6 57.6 0-19.2-38.4-57.6-57.6-57.6 19.2 0 57.6-38.4 57.6-57.6zM332.8 492.8c0 19.2 38.4 57.6 57.6 57.6-19.2 0-57.6 38.4-57.6 57.6 0-19.2-38.4-57.6-57.6-57.6 19.2 0 57.6-38.4 57.6-57.6zM492.8 563.2c0 44.8 96 140.8 140.8 140.8-44.8 0-140.8 96-140.8 140.8 0-44.8-89.6-140.8-140.8-140.8 51.2 0 140.8-96 140.8-140.8z" />
</font>
</defs>
</svg>
